<?xml version="1.0" encoding="iso-8859-1"?>
<!-- Generator: Adobe Illustrator 19.0.0, SVG Export Plug-In . SVG Version: 6.00 Build 0)  -->
<svg version="1.1" id="Capa_1" xmlns="http://www.w3.org/2000/svg" xmlns:xlink="http://www.w3.org/1999/xlink" x="px" y="0px"
	 viewBox="-50 -50 596 596" style="enable-background:new 0 0 596 596;" xml:space="preserve">
<g>
	<g>
		<path  style="fill:#666666" d="M472,48H72c-13.255,0-24,10.745-24,24v8c-13.255,0-24,10.745-24,24v8c-13.255,0-24,10.745-24,24v288
			c0,13.255,10.745,24,24,24h400c13.255,0,24-10.745,24-24v-8c13.255,0,24-10.745,24-24v-8c13.255,0,24-10.745,24-24V72
			C496,58.745,485.255,48,472,48z M432,424c0,4.418-3.582,8-8,8H24c-4.418,0-8-3.582-8-8V217.6l129.408,186.952
			c2.516,3.632,7.5,4.536,11.132,2.02c0.789-0.547,1.473-1.231,2.02-2.02L296,206.056l136,196.448V424z M432,374.4L302.568,187.448
			c-2.8-3.632-8.015-4.306-11.647-1.505c-0.564,0.435-1.07,0.941-1.505,1.505L152,385.944L16,189.496V136c0-4.418,3.582-8,8-8h400
			c4.418,0,8,3.582,8,8V374.4z M456,392c0,4.418-3.582,8-8,8V136c0-13.255-10.745-24-24-24H40v-8c0-4.418,3.582-8,8-8h400
			c4.418,0,8,3.582,8,8V392z M480,360c0,4.418-3.582,8-8,8V104c0-13.255-10.745-24-24-24H64v-8c0-4.418,3.582-8,8-8h400
			c4.418,0,8,3.582,8,8V360z"/>
	</g>
</g>
<g>
	<g>
		<path style="fill:#666666"  d="M64,144c-17.673,0-32,14.327-32,32s14.327,32,32,32s32-14.327,32-32S81.673,144,64,144z M64,192c-8.837,0-16-7.163-16-16
			s7.163-16,16-16s16,7.163,16,16S72.837,192,64,192z"/>
	</g>
</g>
<g>
</g>
<g>
</g>
<g>
</g>
<g>
</g>
<g>
</g>
<g>
</g>
<g>
</g>
<g>
</g>
<g>
</g>
<g>
</g>
<g>
</g>
<g>
</g>
<g>
</g>
<g>
</g>
<g>
</g>
</svg>
