<?xml version="1.0" encoding="utf-8"?>
<!-- Svg Vector Icons : http://www.onlinewebfonts.com/icon -->
<!DOCTYPE svg PUBLIC "-//W3C//DTD SVG 1.1//EN" "http://www.w3.org/Graphics/SVG/1.1/DTD/svg11.dtd">
<svg version="1.1" xmlns="http://www.w3.org/2000/svg" xmlns:xlink="http://www.w3.org/1999/xlink" x="0px" y="0px" viewBox="0 0 1000 1000" enable-background="new 0 0 1000 1000" xml:space="preserve">
<metadata> Svg Vector Icons : http://www.onlinewebfonts.com/icon </metadata>
<g><path style="fill:#DDDDDD" d="M500,10c270.2,0,490,219.8,490,490S770.2,990,500,990S10,770.2,10,500S229.8,10,500,10L500,10z M223.7,815.5c-0.2-14.1,8.2-27.6,22.2-33.1c22.7-9,79.1-35.3,149.1-47.8v-14.9c-70-68.7-111.3-197.4-111.3-294.6c0-138.8,72.3-218.4,198.6-218.4c129.6,0,210.4,81.7,210.4,218.4c0,47-17.7,201.2-87.7,285.9v18.7c35,8.6,107.5,27.3,155.1,44.2c16.5,5.8,23.4,22.7,20.3,39.3c86.4-77,140.4-188.7,140.4-313.3c0-231.6-188.9-420-420.4-420C268.8,80,80.2,268.4,80.2,500C80.2,625.8,135.8,738.5,223.7,815.5L223.7,815.5z"/></g>
</svg>